<?xml version="1.0" ?>

<!-- Uploaded to: SVG Repo, www.svgrepo.com, Generator: SVG Repo Mixer Tools -->
<svg width="30px" height="30px" viewBox="0 0 32 32" xmlns="http://www.w3.org/2000/svg">

<defs>

<style>.cls-1{fill:#005792;}.cls-2{fill:none;}</style>

</defs>

<title/>

<g id="Bell">

<path class="cls-1" d="M26,25a.45.45,0,0,1,0,.12.69.69,0,0,1-.7.48H21.74V17.8a11.66,11.66,0,0,0-4.35-8.9A11.25,11.25,0,0,0,16.14,8h0c-.16-.12-.33-.23-.51-.34a14.49,14.49,0,0,0-1.83-1V6.42c.25,0,.51,0,.75,0h.14V5.8A.65.65,0,0,0,14,5.2h-.07a1.76,1.76,0,0,1,.9-1.06h0A1.9,1.9,0,0,1,15.94,5.2h-.5a.57.57,0,0,0-.55.6v.67H15a9.07,9.07,0,0,1,.91-.06h.18v.31a12.1,12.1,0,0,1,5.18,2.5A8.82,8.82,0,0,1,24.58,16v8.4h.71a.69.69,0,0,1,.7.48A.45.45,0,0,1,26,25Z"/>

<path class="cls-2" d="M23.78,16a8.71,8.71,0,0,0-2.28-5.94,7.64,7.64,0,0,0-3.94-2.29,6.51,6.51,0,0,0-.77-.13,7.32,7.32,0,0,0-2.34.13A8.31,8.31,0,0,0,8.22,16v8.4H23.78Z"/>

<path d="M26,24.88a.57.57,0,0,0-.55-.48h-.55V16a9.87,9.87,0,0,0-2.61-6.78,8.73,8.73,0,0,0-4.06-2.5V5.8A1.73,1.73,0,0,0,16.56,4H15.44a1.53,1.53,0,0,0-.64.14h0a1.76,1.76,0,0,0-.9,1.06,1.18,1.18,0,0,0-.09.37.86.86,0,0,0,0,.23v.91A9.53,9.53,0,0,0,7.11,16v8.4H6.56a.6.6,0,0,0,0,1.2h7.22A2.32,2.32,0,0,0,16,28a2.32,2.32,0,0,0,2.22-2.4h7.22a.57.57,0,0,0,.55-.48.73.73,0,0,0,0-.24ZM16.56,5.2a.57.57,0,0,1,.55.6v.67H17a9.07,9.07,0,0,0-.91-.06h-.2a9.07,9.07,0,0,0-.91.06h-.1V5.8a.57.57,0,0,1,.55-.6Zm7.22,19.2H8.22V16a8.3,8.3,0,0,1,6.22-8.23L15,7.68h.1l.22,0,.31,0a7.75,7.75,0,0,1,1.18,0,4.76,4.76,0,0,1,.77.12,3.31,3.31,0,0,1,.45.12l.1,0,.16.06a4.33,4.33,0,0,1,.56.22l.19.08.28.13a1.51,1.51,0,0,1,.28.15,3.85,3.85,0,0,1,.38.23L20.3,9s.06,0,.08.06a4.23,4.23,0,0,1,.41.33,7.43,7.43,0,0,1,.71.67A8.72,8.72,0,0,1,23.78,16Z"/>

</g>

</svg>